<svg aria-hidden="true" style="position: absolute; width: 0; height: 0; overflow: hidden;"
  version="1.1"
  xmlns="http://www.w3.org/2000/svg" xmlns:xlink="http://www.w3.org/1999/xlink">
  <defs>

    <symbol id="icon-pencil" viewBox="0 0 32 32">
      <path
        d="M27 0c2.761 0 5 2.239 5 5 0 1.126-0.372 2.164-1 3l-2 2-7-7 2-2c0.836-0.628 1.874-1 3-1zM2 23l-2 9 9-2 18.5-18.5-7-7-18.5 18.5zM22.362 11.362l-14 14-1.724-1.724 14-14 1.724 1.724z"></path>
    </symbol>

    <symbol id="icon-flickr2" viewBox="0 0 32 32">
      <path
        d="M25 13c-2.206 0-4 1.794-4 4s1.794 4 4 4c2.206 0 4-1.794 4-4s-1.794-4-4-4zM25 10v0c3.866 0 7 3.134 7 7s-3.134 7-7 7-7-3.134-7-7c0-3.866 3.134-7 7-7zM0 17c0-3.866 3.134-7 7-7s7 3.134 7 7c0 3.866-3.134 7-7 7s-7-3.134-7-7z"></path>
    </symbol>

    <symbol id="icon-instagram" viewBox="0 0 32 32">
      <path
        d="M16 2.881c4.275 0 4.781 0.019 6.462 0.094 1.563 0.069 2.406 0.331 2.969 0.55 0.744 0.288 1.281 0.638 1.837 1.194 0.563 0.563 0.906 1.094 1.2 1.838 0.219 0.563 0.481 1.412 0.55 2.969 0.075 1.688 0.094 2.194 0.094 6.463s-0.019 4.781-0.094 6.463c-0.069 1.563-0.331 2.406-0.55 2.969-0.288 0.744-0.637 1.281-1.194 1.837-0.563 0.563-1.094 0.906-1.837 1.2-0.563 0.219-1.413 0.481-2.969 0.55-1.688 0.075-2.194 0.094-6.463 0.094s-4.781-0.019-6.463-0.094c-1.563-0.069-2.406-0.331-2.969-0.55-0.744-0.288-1.281-0.637-1.838-1.194-0.563-0.563-0.906-1.094-1.2-1.837-0.219-0.563-0.481-1.413-0.55-2.969-0.075-1.688-0.094-2.194-0.094-6.463s0.019-4.781 0.094-6.463c0.069-1.563 0.331-2.406 0.55-2.969 0.288-0.744 0.638-1.281 1.194-1.838 0.563-0.563 1.094-0.906 1.838-1.2 0.563-0.219 1.412-0.481 2.969-0.55 1.681-0.075 2.188-0.094 6.463-0.094zM16 0c-4.344 0-4.887 0.019-6.594 0.094-1.7 0.075-2.869 0.35-3.881 0.744-1.056 0.412-1.95 0.956-2.837 1.85-0.894 0.888-1.438 1.781-1.85 2.831-0.394 1.019-0.669 2.181-0.744 3.881-0.075 1.713-0.094 2.256-0.094 6.6s0.019 4.887 0.094 6.594c0.075 1.7 0.35 2.869 0.744 3.881 0.413 1.056 0.956 1.95 1.85 2.837 0.887 0.887 1.781 1.438 2.831 1.844 1.019 0.394 2.181 0.669 3.881 0.744 1.706 0.075 2.25 0.094 6.594 0.094s4.888-0.019 6.594-0.094c1.7-0.075 2.869-0.35 3.881-0.744 1.050-0.406 1.944-0.956 2.831-1.844s1.438-1.781 1.844-2.831c0.394-1.019 0.669-2.181 0.744-3.881 0.075-1.706 0.094-2.25 0.094-6.594s-0.019-4.887-0.094-6.594c-0.075-1.7-0.35-2.869-0.744-3.881-0.394-1.063-0.938-1.956-1.831-2.844-0.887-0.887-1.781-1.438-2.831-1.844-1.019-0.394-2.181-0.669-3.881-0.744-1.712-0.081-2.256-0.1-6.6-0.1v0z"></path>
      <path
        d="M16 7.781c-4.537 0-8.219 3.681-8.219 8.219s3.681 8.219 8.219 8.219 8.219-3.681 8.219-8.219c0-4.537-3.681-8.219-8.219-8.219zM16 21.331c-2.944 0-5.331-2.387-5.331-5.331s2.387-5.331 5.331-5.331c2.944 0 5.331 2.387 5.331 5.331s-2.387 5.331-5.331 5.331z"></path>
      <path
        d="M26.462 7.456c0 1.060-0.859 1.919-1.919 1.919s-1.919-0.859-1.919-1.919c0-1.060 0.859-1.919 1.919-1.919s1.919 0.859 1.919 1.919z"></path>
    </symbol>

    <symbol id="icon-github" viewBox="0 0 32 32">
      <path
        d="M16 0.395c-8.836 0-16 7.163-16 16 0 7.069 4.585 13.067 10.942 15.182 0.8 0.148 1.094-0.347 1.094-0.77 0-0.381-0.015-1.642-0.022-2.979-4.452 0.968-5.391-1.888-5.391-1.888-0.728-1.849-1.776-2.341-1.776-2.341-1.452-0.993 0.11-0.973 0.11-0.973 1.606 0.113 2.452 1.649 2.452 1.649 1.427 2.446 3.743 1.739 4.656 1.33 0.143-1.034 0.558-1.74 1.016-2.14-3.554-0.404-7.29-1.777-7.29-7.907 0-1.747 0.625-3.174 1.649-4.295-0.166-0.403-0.714-2.030 0.155-4.234 0 0 1.344-0.43 4.401 1.64 1.276-0.355 2.645-0.532 4.005-0.539 1.359 0.006 2.729 0.184 4.008 0.539 3.054-2.070 4.395-1.64 4.395-1.64 0.871 2.204 0.323 3.831 0.157 4.234 1.026 1.12 1.647 2.548 1.647 4.295 0 6.145-3.743 7.498-7.306 7.895 0.574 0.497 1.085 1.47 1.085 2.963 0 2.141-0.019 3.864-0.019 4.391 0 0.426 0.288 0.925 1.099 0.768 6.354-2.118 10.933-8.113 10.933-15.18 0-8.837-7.164-16-16-16z"></path>
    </symbol>

    <symbol id="icon-facebook2" viewBox="0 0 32 32">
      <path
        d="M29 0h-26c-1.65 0-3 1.35-3 3v26c0 1.65 1.35 3 3 3h13v-14h-4v-4h4v-2c0-3.306 2.694-6 6-6h4v4h-4c-1.1 0-2 0.9-2 2v2h6l-1 4h-5v14h9c1.65 0 3-1.35 3-3v-26c0-1.65-1.35-3-3-3z"></path>
    </symbol>

    <symbol id="icon-linkedin" viewBox="0 0 32 32">
      <path
        d="M29 0h-26c-1.65 0-3 1.35-3 3v26c0 1.65 1.35 3 3 3h26c1.65 0 3-1.35 3-3v-26c0-1.65-1.35-3-3-3zM12 26h-4v-14h4v14zM10 10c-1.106 0-2-0.894-2-2s0.894-2 2-2c1.106 0 2 0.894 2 2s-0.894 2-2 2zM26 26h-4v-8c0-1.106-0.894-2-2-2s-2 0.894-2 2v8h-4v-14h4v2.481c0.825-1.131 2.087-2.481 3.5-2.481 2.488 0 4.5 2.238 4.5 5v9z"></path>
    </symbol>

    <symbol id="icon-mail-envelope-closed" viewBox="0 0 32 32">
      <path
        d="M25.923 21.077l-0.808 0.808-5.99-5.135-2.625 2.25-2.625-2.25-5.99 5.135-0.808-0.808 5.923-5.077-5.923-5.077 0.808-0.808 8.615 7.385 8.615-7.385 0.808 0.808-5.923 5.077 5.923 5.077zM6.004 8c-1.107 0-2.004 0.895-2.004 1.994v12.012c0 1.101 0.89 1.994 2.004 1.994h20.993c1.107 0 2.004-0.895 2.004-1.994v-12.012c0-1.101-0.89-1.994-2.004-1.994h-20.993z"></path>
    </symbol>

    <symbol id="icon-mobile" viewBox="0 0 32 32">
      <path
        d="M23 0h-14c-1.65 0-3 1.35-3 3v26c0 1.65 1.35 3 3 3h14c1.65 0 3-1.35 3-3v-26c0-1.65-1.35-3-3-3zM12 1.5h8v1h-8v-1zM16 30c-1.105 0-2-0.895-2-2s0.895-2 2-2 2 0.895 2 2-0.895 2-2 2zM24 24h-16v-20h16v20z"></path>
    </symbol>

    <symbol id="icon-spinner11" viewBox="0 0 32 32">
      <path
        d="M32 12h-12l4.485-4.485c-2.267-2.266-5.28-3.515-8.485-3.515s-6.219 1.248-8.485 3.515c-2.266 2.267-3.515 5.28-3.515 8.485s1.248 6.219 3.515 8.485c2.267 2.266 5.28 3.515 8.485 3.515s6.219-1.248 8.485-3.515c0.189-0.189 0.371-0.384 0.546-0.583l3.010 2.634c-2.933 3.349-7.239 5.464-12.041 5.464-8.837 0-16-7.163-16-16s7.163-16 16-16c4.418 0 8.418 1.791 11.313 4.687l4.687-4.687v12z"></path>
    </symbol>

    <symbol id="icon-ibm" viewBox="0 0 32 32">
      <path fill="#054ada" style="fill: var(--color1, #054ada)"
        d="M0 21.525h6.223v0.891h-6.223zM0 19.816h6.223v0.893h-6.223zM1.773 18.111h2.671v0.895h-2.671zM1.773 16.407h2.671v0.893h-2.671zM1.773 14.7h2.671v0.895h-2.671zM1.773 12.992h2.671v0.895h-2.671zM0 11.288h6.223v0.893h-6.223zM0 9.583h6.223v0.893h-6.223zM7.109 20.709h9.569c0.16-0.275 0.283-0.577 0.356-0.893h-9.924zM15.933 16.407h-7.044v0.893h7.791c-0.205-0.345-0.454-0.64-0.742-0.89l-0.005-0.004zM8.888 14.7v0.895h7.047c0.297-0.251 0.547-0.552 0.745-0.895zM16.679 11.288h-9.569v0.893h9.924c-0.089-0.34-0.21-0.637-0.365-0.913l0.010 0.020zM13.737 9.583h-6.628v0.893h8.913c-0.598-0.554-1.4-0.893-2.283-0.893-0.001 0-0.002 0-0.003 0h0zM8.888 12.992h2.667v0.895h-2.667zM14.223 13.887h2.789c0.079-0.285 0.12-0.587 0.12-0.895h-2.909zM8.888 18.111h2.665v0.895h-2.667zM14.223 18.111v0.895h2.909c0-0.307-0.041-0.609-0.12-0.895zM7.109 22.409l6.627 0.009c0.889 0 1.691-0.343 2.289-0.893h-8.916zM17.779 21.525h4.443v0.891h-4.443zM17.779 19.816h4.443v0.893h-4.443zM19.553 18.111h2.667v0.895h-2.667zM19.553 16.407h2.667v0.893h-2.667zM23.459 11.288h-5.68v0.893h5.987zM22.869 9.583h-5.091v0.892h5.397zM27.553 21.525h4.447v0.891h-4.447zM27.553 19.816h4.447v0.893h-4.447zM27.553 18.111h2.667v0.895h-2.667zM27.553 16.407h2.667v0.893h-2.667zM27.553 15.595h2.667v-0.895h-5.081l-0.251 0.723-0.251-0.723h-5.084v0.895h2.667v-0.821l0.284 0.821h4.767l0.283-0.821zM30.221 12.992h-4.493l-0.307 0.895h4.8zM26.911 9.583l-0.308 0.892h5.397v-0.892zM24.888 22.409l0.307-0.884h-0.615zM24.299 20.709h1.179l0.317-0.893h-1.809zM23.7 19.005h2.376l0.313-0.895h-3.004zM23.103 17.3h3.572l0.305-0.893h-4.184zM19.553 13.887h4.803l-0.308-0.895h-4.495zM26.013 12.181h5.987v-0.893h-5.683z"></path>
    </symbol>

  </defs>
</svg>
